<svg xmlns="http://www.w3.org/2000/svg" viewBox="0 0 141 46">
  <g fill="none">
    <path fill="#2E2E2E" d="M65.75 17c1.82692308 0 3.36538462.50420168 4.51923077 1.61344538C71.42307692 19.72268908 72 21.13445378 72 22.94957983c0 1.81512605-.57692308 3.22689076-1.73076923 4.33613447C69.11538462 28.394958 67.57692307 29 65.75 29H62V17h3.75zm-1.4423077 2.2184874v7.5630252h1.34615385c1.15384616 0 2.11538462-.302521 2.78846154-1.00840336C69.1153846 25.0672269 69.5 24.15966387 69.5 22.94957984c0-2.31932774-1.53846154-3.73109245-3.84615385-3.73109245H64.3076923zm29.9619706-2.02336545H97L92.1460674 29h-.8089887L88 21.7804878 84.6629213 29h-.8089887L79 17.19512195h2.7303371l2.6292135 6.8292683L87.494382 17h.8089888l3.1348314 7.02439024M106.3300971 29H104V17h2.3300971v5.5462185L110.6990291 17h2.815534l-4.4660194 5.64705882L114 29h-2.815534l-4.9514563-6.25210084V29M124 17v12h-2V17m19 0v2.2184874h-3.8V29h-2.4v-9.7815126H131V17"/>
    <path fill="#1362E2" d="M33 17l-10.5 5L12 17l10.5-5L33 17zm0 1v10l-10 6h-1l-10-6V18l10 4.9V34h1V22.9L33 18zM23 46l23-12.3V12.3L23 0 0 12.3v21.4L23 46z"/>
  </g>
</svg>
