<svg xmlns="http://www.w3.org/2000/svg" xmlns:xlink="http://www.w3.org/1999/xlink">
  <defs>
    <path id="a" d="M83.5 30H0V0h167v30z"/>
  </defs>
  <g fill="none" fill-rule="evenodd">
    <path fill="#959595" d="M167.4996 14.4c0 1-.199 1.8-.5 2.6-.3.8-.8 1.4-1.399 2-.601.6-1.3 1-2.201 1.3-.9.3-1.799.5-2.9.5-1.8 0-3.199-.3-4.1-.8v-2.4c1.3.9 2.701 1.3 4.1 1.3.7 0 1.4-.1 1.9-.3.5-.2 1.1-.5 1.5-.9.401-.4.701-.8.901-1.4.199-.6.3-1.1.3-1.7 0-1.3-.401-2.3-1.3-3-.901-.7-2.101-1.1-3.7-1.1h-2.601c-.3 0-.5 0-.8.1l.7-9.8h9.1v2h-7.1l-.4 5.8h1.801c1 0 2 .1 2.8.4.799.3 1.5.7 2.099 1.2.601.5 1 1.1 1.3 1.9.301.8.5 1.4.5 2.3zm-16.6.1c0-.7-.099-1.3-.299-1.8-.201-.5-.401-1-.701-1.4-.299-.4-.7-.7-1.2-.9-.5-.2-1-.3-1.599-.3-.601 0-1.101.1-1.5.3-.5.2-.901.5-1.201.9-.299.4-.599.8-.799 1.3-.201.5-.3 1-.3 1.5 0 .7.099 1.3.3 1.9.2.6.5 1.1.799 1.5.3.4.8.8 1.201 1 .399.2 1 .4 1.599.4.601 0 1.101-.1 1.5-.3.401-.2.901-.5 1.2-.9.3-.4.6-.8.8-1.4.101-.6.2-1.2.2-1.8zm2.3-.3c0 1-.2 1.8-.5 2.6s-.7 1.5-1.3 2.1c-.599.6-1.2 1-2 1.4-.799.3-1.599.5-2.5.5-1 0-1.9-.2-2.599-.6-.7-.4-1.401-1-2-1.8-.601-.8-1-1.7-1.2-2.8-.3-1.1-.401-2.4-.401-3.8 0-1.7.2-3.3.601-4.6.399-1.3.899-2.6 1.599-3.6.701-1 1.5-1.8 2.5-2.3 1-.5 2.1-.8 3.3-.8 1.3 0 2.401.2 3.3.6v2.1c-1-.5-2.1-.8-3.199-.8-.901 0-1.7.2-2.401.6-.7.4-1.299.9-1.799 1.7-.5.7-.901 1.6-1.201 2.6-.299 1-.4 2.1-.4 3.4h.101c.899-1.6 2.399-2.4 4.5-2.4.899 0 1.599.1 2.299.4.701.3 1.3.7 1.8 1.2s.901 1.2 1.101 1.9c.199.7.399 1.5.399 2.4zm-16.099.6c0 .9-.201 1.7-.5 2.4-.3.7-.8 1.3-1.401 1.9-.599.6-1.3.9-2.2 1.2-.899.3-1.8.4-2.8.4-1.899 0-3.399-.4-4.5-1.1v-2.4c1.3 1 2.8 1.6 4.5 1.6.7 0 1.3-.1 1.901-.3.599-.2 1-.4 1.399-.8.4-.4.7-.7.9-1.2.201-.5.3-1 .3-1.6 0-2.6-1.8-3.8-5.5-3.8h-1.599V9.3h1.5c3.2 0 4.799-1.2 4.799-3.6 0-2.2-1.2-3.3-3.7-3.3-1.399 0-2.7.5-3.899 1.4V1.6c1.199-.7 2.699-1.1 4.5-1.1.8 0 1.599.1 2.199.3.7.2 1.2.5 1.7 1 .5.4.8.9 1.101 1.5.3.6.599 1.1.599 1.8 0 2.6-1.299 4.2-3.9 5v.1c.7.1 1.301.2 1.801.5.599.3 1.099.6 1.5 1 .399.4.699.9 1 1.4.3.5.3 1.1.3 1.7zm-31.101 5.1v-2.4c1.2.9 2.601 1.4 4 1.4 2 0 3-.7 3-2 0-.4-.1-.7-.3-1-.2-.3-.399-.5-.7-.7-.3-.2-.6-.4-1-.5-.399-.1-.8-.3-1.3-.5-.599-.2-1.2-.5-1.599-.7-.401-.2-.901-.5-1.201-.8-.299-.3-.599-.7-.7-1.1-.099-.4-.2-.9-.2-1.4 0-.7.2-1.2.5-1.7.301-.5.7-.9 1.2-1.3.5-.3 1.101-.6 1.7-.8.6-.2 1.3-.3 2-.3 1.201 0 2.3.2 3.3.6V9c-1-.7-2.2-1-3.599-1-.401 0-.8 0-1.101.1-.3.1-.6.2-.899.4-.3.2-.401.4-.601.6-.199.2-.199.5-.199.8 0 .4.099.7.199.9.101.2.301.5.601.7.299.2.599.4.899.5.4.2.801.3 1.2.5.601.2 1.2.5 1.7.7.5.2.901.5 1.3.8.3.3.601.7.8 1.1.2.4.301.9.301 1.5 0 .7-.2 1.3-.5 1.8-.301.5-.7.9-1.2 1.3-.5.3-1.101.6-1.8.8-.7.2-1.401.2-2.101.2-1.399 0-2.7-.3-3.7-.8zm-2.6-.1c-1.099.6-2.4 1-3.799 1-2 0-3.601-.6-4.8-1.9-1.2-1.3-1.801-3-1.801-5.1 0-2.3.7-4.2 2-5.6 1.301-1.4 3.101-2.1 5.301-2.1 1.199 0 2.3.2 3.3.7v2.3c-1-.7-2.201-1.1-3.3-1.1-1.401 0-2.601.5-3.5 1.5-.901 1-1.401 2.4-1.401 4s.401 2.9 1.3 3.9c.901 1 2 1.4 3.5 1.4 1.2 0 2.401-.4 3.401-1.2v2.2h-.201zm-16.299.6h2.2v-14h-2.2v14zm1.099-17.6c-.399 0-.7-.1-1-.4-.3-.3-.399-.6-.399-1s.099-.8.399-1c.3-.3.601-.4 1-.4.401 0 .8.1 1 .4.2.3.401.6.401 1s-.101.7-.401 1c-.3.3-.599.4-1 .4zm-5.3 17.6h-2.2v-8c0-1.5-.199-2.7-.699-3.4-.5-.7-1.301-1-2.4-1-1 0-1.801.4-2.401 1.3-.599.9-1 1.9-1 3.1v8h-2.199v-8.3c0-2.8-1.101-4.1-3.201-4.1-1 0-1.799.4-2.4 1.2-.6.8-1 1.9-1 3.2v8h-2.2v-14h2.2v2.2h.101c1-1.7 2.399-2.5 4.299-2.5 1 0 1.801.3 2.5.8.701.5 1.201 1.2 1.5 2.1 1-1.9 2.6-2.9 4.6-2.9 3.101 0 4.601 1.9 4.601 5.7v8.6h-.101zm-26.399-7.1l-3.4.5c-1 .1-1.801.4-2.401.8-.5.4-.8 1-.8 2 0 .7.201 1.2.701 1.7.5.4 1.099.6 1.9.6 1.1 0 2-.4 2.799-1.2.801-.8 1.1-1.8 1.1-3v-1.4h.101zm2.199 7.1h-2.199v-2.2h-.101c-1 1.7-2.399 2.5-4.299 2.5-1.401 0-2.5-.4-3.301-1.1-.799-.7-1.199-1.7-1.199-2.9 0-2.6 1.5-4.1 4.599-4.6l4.2-.6c0-2.4-1-3.6-2.899-3.6-1.701 0-3.201.6-4.601 1.7V7.4c1.4-.9 3-1.3 4.8-1.3 3.301 0 4.901 1.7 4.901 5.2v9.1h.099zm-14.199 0h-2.201v-8c0-3-1.1-4.5-3.299-4.5-1.101 0-2 .4-2.801 1.3-.699.8-1.099 1.9-1.099 3.2v8h-2.201v-14h2.201v2.3h.099c1.1-1.8 2.6-2.7 4.6-2.7 1.5 0 2.701.5 3.5 1.5.801 1 1.201 2.4 1.201 4.3v8.6zm-14.001-14l-6.399 16.2c-1.101 2.9-2.801 4.3-4.801 4.3-.6 0-1.1-.1-1.5-.2v-2c.5.2.9.2 1.301.2 1.099 0 2-.7 2.5-2l1.099-2.7-5.4-13.8h2.5l3.801 10.8c0 .1.099.5.299 1.1h.1c0-.2.101-.6.3-1l4-10.8h2.2v-.1zm-28.2-3.5v15.4h2.9c2.6 0 4.6-.7 6-2.1 1.401-1.4 2.1-3.3 2.1-5.9 0-5-2.699-7.5-8-7.5h-3v.1zm-2.3 17.5V.8h5.4c6.9 0 10.4 3.2 10.4 9.6 0 3-1 5.5-2.9 7.3-1.9 1.8-4.5 2.7-7.7 2.7h-5.2z"/>
  </g>
</svg>
