<svg xmlns="http://www.w3.org/2000/svg" id="Слой_1" viewBox="0 0 150 54">
  <style>
    .st0{fill:#2E2E2E;} .st1{fill:#1362E2;} .st2{fill:#FFFFFF;}
  </style>
  <g id="Illustrations">
    <g id="DWKIT_LOGO_F_Vers">
      <g id="Group">
        <path id="Shape" d="M67.2 21.5c1.8 0 3.4.5 4.5 1.6 1.2 1.1 1.7 2.5 1.7 4.3s-.6 3.2-1.7 4.3c-1.2 1.1-2.7 1.7-4.5 1.7h-3.8v-12h3.8zm-1.4 2.2v7.6h1.3c1.2 0 2.1-.3 2.8-1 .7-.7 1.1-1.6 1.1-2.8 0-2.3-1.5-3.7-3.8-3.7h-1.4z" class="st0"/>
        <path id="Shape_1_" d="M95.8 21.7h2.7l-4.9 11.8h-.8l-3.3-7.2-3.3 7.2h-.8l-4.9-11.8h2.7l2.7 6.8 3.1-7h.8l3.1 7z" class="st0"/>
        <path id="Shape_2_" d="M107.8 33.5h-2.3v-12h2.3V27l4.4-5.5h2.8l-4.5 5.6 5 6.4h-2.8l-5-6.3v6.3z" class="st0"/>
        <path id="Shape_3_" d="M125.5 21.5v12h-2v-12z" class="st0"/>
        <path id="Shape_4_" d="M142.5 21.5v2.2h-3.8v9.8h-2.4v-9.8h-3.8v-2.2z" class="st0"/>
      </g>
      <g id="DWKIT_LOGO">
        <path id="Rectangle-2" d="M.5 15.1L24 1.5v50.6L.5 38.5V15.1zM24 1.5l23.4 13.6v23.5L24 52.1V1.5z" class="st1"/>
        <path id="Path-2" d="M12.9 20.4L24 14l11 6.4-11 6.4z" class="st2"/>
        <path id="Path-3" d="M12.1 21.1l11.4 6.6v11.5l-11.4-6.5z" class="st2"/>
        <path id="Path-3-Copy" d="M35.8 21.1l-11.3 6.6v11.5l11.3-6.5z" class="st2"/>
      </g>
    </g>
  </g>
</svg>
