<svg xmlns="http://www.w3.org/2000/svg" xmlns:xlink="http://www.w3.org/1999/xlink">
  <defs>
    <path id="a" d="M130 10.4997V0H0v20.9994h130z"/>
  </defs>
  <g fill="none" fill-rule="evenodd">
    <path fill="#959595" d="M130.1 20.6004c-.5.3-1.2.399-2.1.399-2.5 0-3.7-1.399-3.7-4.099v-8.3h-2.4v-1.9h2.4v-3.4l2.2-.7v4.1h3.5v1.9h-3.5v7.899c0 .901.2 1.601.5 2 .3.401.8.601 1.6.601.6 0 1.1-.2 1.5-.5v2zm-10.7.1h-2.2v-8c0-3-1.1-4.5-3.3-4.5-1.1 0-2 .4-2.8 1.299-.8.901-1.1 1.901-1.1 3.201v8h-2.2v-14h2.2v2.299h.1c1.1-1.799 2.6-2.699 4.6-2.699 1.5 0 2.7.5 3.5 1.5.8 1 1.2 2.4 1.2 4.3v8.6zm-18.3 0h2.2v-14h-2.2v14zm1.1-17.6c-.4 0-.7-.101-1-.4-.3-.3-.4-.6-.4-1s.1-.8.4-1c.3-.3.6-.4 1-.4s.8.1 1 .4c.2.299.4.6.4 1s-.1.7-.4 1c-.3.299-.6.4-1 .4zm-11.6 5.2c-1.4 0-2.6.5-3.4 1.5-.8 1-1.3 2.3-1.3 4.1 0 1.7.4 3 1.3 3.899.9.901 2 1.401 3.4 1.401s2.6-.5 3.3-1.401c.7-.899 1.2-2.3 1.2-4 0-1.8-.4-3.099-1.2-3.999-.8-.9-1.8-1.5-3.3-1.5zm-.1 12.699c-2.1 0-3.7-.7-5-2-1.3-1.299-1.9-3-1.9-5.2 0-2.399.6-4.199 1.9-5.499 1.3-1.301 3-2 5.2-2 2.1 0 3.7.6 4.9 1.9 1.2 1.299 1.8 3.1 1.8 5.299 0 2.201-.6 4-1.9 5.401-1.3 1.399-2.9 2.099-5 2.099zM72.6 3.2004v8H75c1.6 0 2.8-.4 3.6-1.1.8-.7 1.3-1.7 1.3-3.101 0-2.599-1.5-3.899-4.6-3.899h-2.7v.1zm0 10.099v7.401h-2.3v-19.6h5.4c2.1 0 3.7.5 4.9 1.5 1.2 1 1.7 2.5 1.7 4.3 0 1.8-.6 3.4-1.9 4.599-1.3 1.201-3 1.8-5.2 1.8h-2.6zm-8.3-.899c0-1.3-.3-2.3-.9-3-.6-.7-1.5-1.1-2.6-1.1s-2 .4-2.7 1.1c-.7.7-1.2 1.7-1.4 3h7.6zm2.3 1.899h-9.9c0 1.601.5 2.801 1.3 3.601.8.8 1.9 1.3 3.3 1.3 1.6 0 3-.5 4.3-1.6v2.1c-1.2.9-2.9 1.299-4.9 1.299-2 0-3.5-.599-4.7-1.899-1.1-1.301-1.7-3.101-1.7-5.4 0-2.201.6-4 1.9-5.3 1.2-1.401 2.8-2.1 4.6-2.1 1.8 0 3.3.699 4.3 1.8 1 1.2 1.5 2.8 1.5 4.899v1.3zm-13.7-5.3c-.4-.299-1-.5-1.7-.5-1 0-1.8.5-2.4 1.401-.6.9-1 2.099-1 3.7v7.1h-2.2v-14h2.2v2.9h.1c.3-1 .8-1.8 1.5-2.3.7-.5 1.4-.801 2.2-.801.6 0 1 .101 1.3.201v2.299zm-13.8 4.601l-3.4.5c-1 .1-1.8.399-2.4.8-.5.399-.8 1-.8 2 0 .7.2 1.2.7 1.7.5.399 1.1.6 1.9.6 1.1 0 2-.401 2.8-1.201.8-.799 1.1-1.799 1.1-3v-1.399h.1zm2.3 7.1h-2.3v-2.201c-1 1.701-2.4 2.5-4.3 2.5-1.4 0-2.5-.399-3.3-1.099-.8-.7-1.2-1.7-1.2-2.901 0-2.599 1.5-4.099 4.6-4.599l4.2-.601c0-2.399-1-3.599-2.9-3.599-1.7 0-3.2.6-4.6 1.7v-2.2c1.4-.9 3-1.3 4.8-1.3 3.3 0 4.9 1.7 4.9 5.2v9.1h.1zm-14.3 0h-2.2v-8.1c0-2.9-1.1-4.4-3.3-4.4-1.1 0-2 .4-2.8 1.299-.7.801-1.1 1.901-1.1 3.201v8h-2.2V-.0006h2.2v9.101h.1c1.1-1.8 2.6-2.7 4.6-2.7 3.2 0 4.7 1.9 4.7 5.7v8.6zm-27.1-.8v-2.7c.3.299.7.5 1.1.7.4.2.9.399 1.4.599.5.201 1 .3 1.4.3.5.101.9.101 1.3.101 1.4 0 2.5-.3 3.2-.8.7-.5 1-1.301 1-2.301 0-.5-.1-1-.3-1.399-.2-.401-.6-.8-1-1.101-.4-.3-.9-.599-1.5-.899-.6-.3-1.2-.601-1.8-.901-.7-.299-1.3-.699-1.9-1.099-.6-.401-1.1-.7-1.5-1.2-.4-.5-.8-.9-1-1.5-.2-.3-.4-1-.4-1.701 0-.899.2-1.699.6-2.299.4-.701.9-1.201 1.5-1.6.6-.4 1.4-.7 2.2-1 .8-.2 1.6-.3 2.5-.3 1.9 0 3.3.199 4.2.699v2.601c-1.2-.8-2.6-1.2-4.5-1.2-.4-.1-.9 0-1.4.099-.5.101-.9.301-1.3.5-.4.201-.7.5-1 .901-.3.4-.4.9-.4 1.4 0 .5.1.9.3 1.3.2.399.5.7.8 1 .4.3.8.6 1.4.899.5.301 1.1.601 1.8.901.7.3 1.4.7 2 1.099.6.401 1.2.8 1.7 1.3s.8 1 1.1 1.5c.3.601.4 1.2.4 1.901 0 1-.2 1.799-.6 2.5-.4.7-.9 1.2-1.5 1.599-.6.401-1.4.801-2.2.901-.8.2-1.7.299-2.7.299-.3 0-.7 0-1.1-.099-.5 0-.9-.101-1.4-.2-.5-.1-.9-.201-1.3-.401-.4-.199-.8-.199-1.1-.399z"/>
  </g>
</svg>
