<?xml version="1.0" encoding="UTF-8"?><!DOCTYPE svg PUBLIC "-//W3C//DTD SVG 1.1//EN" "http://www.w3.org/Graphics/SVG/1.1/DTD/svg11.dtd"><svg xmlns="http://www.w3.org/2000/svg" xmlns:xlink="http://www.w3.org/1999/xlink"><defs><filter id="a" width="123%" height="117.3%" x="-11.5%" y="-7.7%" filterUnits="objectBoundingBox"><feOffset dy="4" in="SourceAlpha" result="shadowOffsetOuter1"/><feGaussianBlur stdDeviation="12" in="shadowOffsetOuter1" result="shadowBlurOuter1"/><feColorMatrix values="0 0 0 0 0.175276361 0 0 0 0 0.175276361 0 0 0 0 0.175276361 0 0 0 0.2 0" in="shadowBlurOuter1"/></filter><style>.cls-1{fill:none;stroke:#515151;stroke-width:.5px}.cls-2{fill:#515151}.cls-3{fill:#fff}</style></defs><symbol id="arrow" viewBox="0 0 40 20"><path fill="#FFF" d="M20 18.272L1.578-.15A.917.917 0 1 0 .28 1.147L19.283 20.15c.197.197.46.285.717.266.257.02.52-.07.717-.266L39.72 1.147A.917.917 0 0 0 38.422-.15L20 18.272z" fill-rule="evenodd"/></symbol><symbol id="dev1" viewBox="0 0 65 62"><g fill="none" fill-rule="evenodd"><g transform="translate(-99 -196)"><use fill="#000" filter="url(#a)" xlink:href="#b"/><use fill="#FEFEFE" xlink:href="#b"/></g><path stroke="#515151" stroke-width=".5" d="M22.588 27.67h18.793v19.822H22.588zm19.506-5.995c.5-.846.948-1.474 1.346-1.882.596-.613 1.657-.944 1.908-.693.146.145.379.885.395 1.7.016.814-.263 2.58-.869 4.072-.363.895-1.59 2.83-3.047 2.133-.97-.464-.882-2.241.267-5.33z"/><path stroke="#515151" stroke-width=".5" d="M22.15 22.66c-.5-.847-.949-1.474-1.346-1.883-.596-.613-1.657-.943-1.909-.693-.145.146-.378.886-.394 1.7-.017.815.263 2.58.869 4.073.362.895 1.59 2.83 3.046 2.133.972-.465.883-2.241-.266-5.33z"/><g fill="#FFF"><path id="b" d="M26.25 9.68h12.28a5 5 0 0 1 4.99 5.336l-1.075 15.992a10 10 0 0 1-.564 2.703c-1.919 5.355-5.05 8.089-9.39 8.202-4.178.11-7.48-2.402-9.902-7.534a10 10 0 0 1-.955-4.023l-.383-15.552a5 5 0 0 1 4.998-5.123z"/></g><path stroke="#515151" stroke-width=".5" d="M26.25 9.93c-.06 0-.06 0-.118.002a4.75 4.75 0 0 0-4.631 4.866l.383 15.552a9.75 9.75 0 0 0 .93 3.922c2.385 5.05 5.602 7.498 9.67 7.391 4.228-.11 7.275-2.772 9.162-8.036a9.75 9.75 0 0 0 .55-2.636l1.074-15.992a4.75 4.75 0 0 0-4.74-5.068H26.25z"/><path fill="#515151" fill-rule="nonzero" d="M42.095 19.29c-.905-.263-1.588-.567-2.105-1.33-.342.445-3.245 2.75-5.27 2.92 2.025-2.157 2.505-5.034 2.627-5.554.053-.222-1.235 1.629-3.864 5.555l1.236-5.17-3.093 5.17.64-3.375-3.124 3.855c.325-1.91.325-2.79 0-2.638-.324.152-.997 1.115-2.017 2.89l-2.064-2.239c-.483 1.225-.483 2.673 0 4.341a26.39 26.39 0 0 1-3.173-4.34v5.265l-2.463-3.615c-.883-1.372-1.361-2.14-1.434-2.302-.108-.244-.816-1.24-.956-3.798-.141-2.557.162-4.578.633-5.453.471-.874 3.771-6.669 6.195-7.309 2.424-.64 4.067-.487 4.655-.904.587-.417 2.097-1.191 3.747-1.256 1.65-.065 4.006 1.029 5.605 2.396 1.598 1.366 6.063 5 6.59 5.898.525.899 1.201 3.264 1.201 4.512 0 1.248-.309 4.917-.603 5.67-.197.502-.912 1.742-2.147 3.72-.48-1.307-.752-2.276-.816-2.909zM0 62v-9c.013-1.792 1.173-3.214 3.48-4.264 2.308-1.05 6.793-2.965 13.456-5.745 3.539-1.888 5.345-2.884 5.417-2.987.109-.155 4.422 5.044 10.309 5.046 3.924.001 6.915-1.68 8.973-5.046 4.689 2.492 7.872 4.064 9.55 4.716 1.677.652 4.967 2.075 9.87 4.27 2.672.746 3.987 2.083 3.945 4.01-.042 1.927-.042 4.26 0 9H0z"/><path fill="#515151" fill-rule="nonzero" d="M29.81 21.848c.892.212 1.69.318 2.393.318.704 0 1.407-.106 2.11-.318L33.583 24c-.404-.405-.864-.607-1.38-.607s-.976.202-1.383.607c-.07-.439-.148-.75-.234-.936-.086-.185-.345-.59-.776-1.216zm-9.544.013h2.488L22.616 24H21.51m21.903-2.62h-2.016l.384 1.76h1.25"/><path stroke="#515151" stroke-width=".5" d="M38.17 28.567c2.486 0 3.835-1.358 3.835-3.567 0-.99.18-2.61-.484-3.282-.665-.673-2.67-.488-4.04-.488-2.486 0-4.058.897-4.058 3.106s2.263 4.23 4.748 4.23zm-11.884.424c-2.485 0-3.84-1.782-3.84-3.991 0-.99-.243-2.212.421-2.885.665-.673 2.67-.488 4.04-.488 2.486 0 4.12.5 4.12 2.71s-2.256 4.654-4.741 4.654z"/></g></symbol><symbol id="dev2" viewBox="0 0 65 62.97"><g id="&#x421;&#x43B;&#x43E;&#x439;_2" data-name="&#x421;&#x43B;&#x43E;&#x439; 2"><g id="&#x421;&#x43B;&#x43E;&#x439;_1-2" data-name="&#x421;&#x43B;&#x43E;&#x439; 1"><g id="Design_Concept" data-name="Design Concept"><g id="Artboard-Copy"><g id="Man"><path id="Path-5" d="M41.09 22.64a10.29 10.29 0 0 1 1.49-2.48 1.21 1.21 0 0 1 1.66 0 3 3 0 0 1 .38 1.6A12.56 12.56 0 0 1 43.8 26c-.36.89-1.51 3.14-3 2.44q-1.42-.73.29-5.8z" class="cls-1"/><path id="Path-5-Copy-2" d="M22 22.61a17.12 17.12 0 0 0-1.87-2.79 1.21 1.21 0 0 0-1.66 0 3 3 0 0 0-.38 1.6 16.75 16.75 0 0 0 1.19 4.51c.36.89 1.64 2.86 3.1 2.16q1.5-.69-.38-5.48z" class="cls-1"/><path id="Path-6" d="M21.6 25.57c-.56-.7-.79-4-1.22-5a1.81 1.81 0 0 0-1.44-1.21q-.25-1.58-.5-5.1a21.39 21.39 0 0 1 .12-6.49c.38-2.18 2.71-4 4.2-5A10.63 10.63 0 0 1 27.54.5a24.7 24.7 0 0 1 5-.5 9.81 9.81 0 0 1 3.75.5A7.49 7.49 0 0 1 38.87 2l1.89 1.55a6.23 6.23 0 0 1 1.84.89 2.09 2.09 0 0 1 .82 1.24c.13.48.39.42.58 1q.19.57.36 1.28v3.56c0 .26.34.36.47.45a31.29 31.29 0 0 1 0 3.42 26.91 26.91 0 0 1-1.1 2.76 6.63 6.63 0 0 0-.52 2.05 46.73 46.73 0 0 1-.81 6c-.11.36-19.88.52-20.8-.63z" class="cls-2"/><path id="Rectangle-4" d="M22.68 28.22h17.44v17.5H22.68z" class="cls-1"/><path id="Combined-Shape" d="M0 63q1.29-15.5 4.42-17c1.27-.61 10.32-2.6 12.65-3.42s2.13-.79 3.3-2.24A16.59 16.59 0 0 0 22.43 37q2.94 3.13 4.52 4.6T32 46q3.3-2.77 4.77-4.21a24.5 24.5 0 0 0 3.65-5.39q2 2.56 2.6 3.31a7.77 7.77 0 0 0 4.43 2.87c2.84.88 5.19 1.57 11.16 3.42q6 1.85 6.4 17zm30 0h4V52l1-2-3-3-3 3 1 2z" class="cls-2"/><g id="Face"><path id="path-1" d="M21.52 20.51c0 1-.06 2.83 0 4.3.11 1.9.46 3.37.46 3.81v1.17a10 10 0 0 0 3.35 7.47q4.56 4.06 6.69 4.15T39 37a10 10 0 0 0 3-6.11q.68-6.37.75-8.72c0-.47-.34-1-.41-2.41s.07-3.08 0-3.67q-.07-.57-.4-2.54a5 5 0 0 0-3.14-3.83A6.54 6.54 0 0 1 33.38 12a10.3 10.3 0 0 1-6.85-2.54 5 5 0 0 0-4 4l-.19 1.09a1.31 1.31 0 0 1 .16.43 9.72 9.72 0 0 1-.5 4.73c-.15.38-.35.78-.48.8z" class="cls-3"/><path d="M21.77 20.65v4.14c0 .67.11 1.33.21 2l.09.6.08.5a5.1 5.1 0 0 1 .08.69v1.17a9.75 9.75 0 0 0 3.27 7.28c3 2.67 5.19 4 6.53 4.09s3.67-1.38 6.73-4.35a9.75 9.75 0 0 0 2.9-6q.68-6.37.75-8.7a1.37 1.37 0 0 0-.05-.37s-.11-.43-.15-.58a7.65 7.65 0 0 1-.2-1.45V17.5a11.84 11.84 0 0 0 0-1.49c0-.38-.18-1.22-.4-2.53a4.75 4.75 0 0 0-2.8-3.48 6.88 6.88 0 0 1-5.43 2.25 10.64 10.64 0 0 1-6.93-2.52 4.75 4.75 0 0 0-3.65 3.81l-.18 1a1.82 1.82 0 0 1 .14.42 9.92 9.92 0 0 1-.53 4.89l-.09.17-.08.15a1.8 1.8 0 0 1-.29.48z" class="cls-1"/></g></g></g></g></g></g></symbol><symbol id="dyn365"><path fill="#959595" d="M167.5 14.4c0 1-.2 1.8-.5 2.6s-.8 1.4-1.4 2c-.6.6-1.3 1-2.2 1.3-.9.3-1.8.5-2.9.5-1.8 0-3.2-.3-4.1-.8v-2.4c1.3.9 2.7 1.3 4.1 1.3.7 0 1.4-.1 1.9-.3.5-.2 1.1-.5 1.5-.9.4-.4.7-.8.9-1.4.2-.6.3-1.1.3-1.7 0-1.3-.4-2.3-1.3-3-.9-.7-2.1-1.1-3.7-1.1h-2.6c-.3 0-.5 0-.8.1l.7-9.8h9.1v2h-7.1l-.4 5.8h1.8c1 0 2 .1 2.8.4.8.3 1.5.7 2.1 1.2.6.5 1 1.1 1.3 1.9.3.8.5 1.4.5 2.3zm-16.6.1c0-.7-.1-1.3-.3-1.8-.2-.5-.4-1-.7-1.4-.3-.4-.7-.7-1.2-.9-.5-.2-1-.3-1.6-.3-.6 0-1.1.1-1.5.3-.5.2-.9.5-1.2.9-.3.4-.6.8-.8 1.3-.2.5-.3 1-.3 1.5 0 .7.1 1.3.3 1.9.2.6.5 1.1.8 1.5.3.4.8.8 1.2 1 .4.2 1 .4 1.6.4.6 0 1.1-.1 1.5-.3.4-.2.9-.5 1.2-.9.3-.4.6-.8.8-1.4.1-.6.2-1.2.2-1.8zm2.3-.3c0 1-.2 1.8-.5 2.6s-.7 1.5-1.3 2.1c-.6.6-1.2 1-2 1.4-.8.3-1.6.5-2.5.5-1 0-1.9-.2-2.6-.6-.7-.4-1.4-1-2-1.8-.6-.8-1-1.7-1.2-2.8-.3-1.1-.4-2.4-.4-3.8 0-1.7.2-3.3.6-4.6.4-1.3.9-2.6 1.6-3.6.7-1 1.5-1.8 2.5-2.3 1-.5 2.1-.8 3.3-.8 1.3 0 2.4.2 3.3.6v2.1c-1-.5-2.1-.8-3.2-.8-.9 0-1.7.2-2.4.6-.7.4-1.3.9-1.8 1.7-.5.7-.9 1.6-1.2 2.6-.3 1-.4 2.1-.4 3.4h.1c.9-1.6 2.4-2.4 4.5-2.4.9 0 1.6.1 2.3.4.7.3 1.3.7 1.8 1.2s.9 1.2 1.1 1.9c.2.7.4 1.5.4 2.4zm-16.1.6c0 .9-.2 1.7-.5 2.4s-.8 1.3-1.4 1.9c-.6.6-1.3.9-2.2 1.2-.9.3-1.8.4-2.8.4-1.9 0-3.4-.4-4.5-1.1v-2.4c1.3 1 2.8 1.6 4.5 1.6.7 0 1.3-.1 1.9-.3.6-.2 1-.4 1.4-.8.4-.4.7-.7.9-1.2.2-.5.3-1 .3-1.6 0-2.6-1.8-3.8-5.5-3.8h-1.6V9.3h1.5c3.2 0 4.8-1.2 4.8-3.6 0-2.2-1.2-3.3-3.7-3.3-1.4 0-2.7.5-3.9 1.4V1.6c1.2-.7 2.7-1.1 4.5-1.1.8 0 1.6.1 2.2.3.7.2 1.2.5 1.7 1 .5.4.8.9 1.1 1.5.3.6.6 1.1.6 1.8 0 2.6-1.3 4.2-3.9 5v.1c.7.1 1.3.2 1.8.5.6.3 1.1.6 1.5 1 .4.4.7.9 1 1.4.3.5.3 1.1.3 1.7zM106 19.9v-2.4c1.2.9 2.6 1.4 4 1.4 2 0 3-.7 3-2 0-.4-.1-.7-.3-1-.2-.3-.4-.5-.7-.7-.3-.2-.6-.4-1-.5-.4-.1-.8-.3-1.3-.5-.6-.2-1.2-.5-1.6-.7-.4-.2-.9-.5-1.2-.8-.3-.3-.6-.7-.7-1.1-.1-.4-.2-.9-.2-1.4 0-.7.2-1.2.5-1.7s.7-.9 1.2-1.3c.5-.3 1.1-.6 1.7-.8.6-.2 1.3-.3 2-.3 1.2 0 2.3.2 3.3.6V9c-1-.7-2.2-1-3.6-1-.4 0-.8 0-1.1.1-.3.1-.6.2-.9.4-.3.2-.4.4-.6.6-.2.2-.2.5-.2.8 0 .4.1.7.2.9.1.2.3.5.6.7.3.2.6.4.9.5.4.2.8.3 1.2.5.6.2 1.2.5 1.7.7.5.2.9.5 1.3.8.3.3.6.7.8 1.1.2.4.3.9.3 1.5 0 .7-.2 1.3-.5 1.8s-.7.9-1.2 1.3c-.5.3-1.1.6-1.8.8-.7.2-1.4.2-2.1.2-1.4 0-2.7-.3-3.7-.8zm-2.6-.1c-1.1.6-2.4 1-3.8 1-2 0-3.6-.6-4.8-1.9-1.2-1.3-1.8-3-1.8-5.1 0-2.3.7-4.2 2-5.6 1.3-1.4 3.1-2.1 5.3-2.1 1.2 0 2.3.2 3.3.7v2.3c-1-.7-2.2-1.1-3.3-1.1-1.4 0-2.6.5-3.5 1.5-.9 1-1.4 2.4-1.4 4s.4 2.9 1.3 3.9 2 1.4 3.5 1.4c1.2 0 2.4-.4 3.4-1.2v2.2h-.2zm-16.3.6h2.2v-14h-2.2v14zm1.1-17.6c-.4 0-.7-.1-1-.4-.3-.3-.4-.6-.4-1s.1-.8.4-1c.3-.3.6-.4 1-.4s.8.1 1 .4c.2.3.4.6.4 1s-.1.7-.4 1c-.3.3-.6.4-1 .4zm-5.3 17.6h-2.2v-8c0-1.5-.2-2.7-.7-3.4-.5-.7-1.3-1-2.4-1-1 0-1.8.4-2.4 1.3-.6.9-1 1.9-1 3.1v8H72v-8.3C72 9.3 70.9 8 68.8 8c-1 0-1.8.4-2.4 1.2-.6.8-1 1.9-1 3.2v8h-2.2v-14h2.2v2.2h.1c1-1.7 2.4-2.5 4.3-2.5 1 0 1.8.3 2.5.8s1.2 1.2 1.5 2.1c1-1.9 2.6-2.9 4.6-2.9 3.1 0 4.6 1.9 4.6 5.7v8.6h-.1zm-26.4-7.1l-3.4.5c-1 .1-1.8.4-2.4.8-.5.4-.8 1-.8 2 0 .7.2 1.2.7 1.7.5.4 1.1.6 1.9.6 1.1 0 2-.4 2.8-1.2.8-.8 1.1-1.8 1.1-3v-1.4h.1zm2.2 7.1h-2.2v-2.2h-.1c-1 1.7-2.4 2.5-4.3 2.5-1.4 0-2.5-.4-3.3-1.1-.8-.7-1.2-1.7-1.2-2.9 0-2.6 1.5-4.1 4.6-4.6l4.2-.6c0-2.4-1-3.6-2.9-3.6-1.7 0-3.2.6-4.6 1.7V7.4c1.4-.9 3-1.3 4.8-1.3 3.3 0 4.9 1.7 4.9 5.2v9.1h.1zm-14.2 0h-2.2v-8c0-3-1.1-4.5-3.3-4.5-1.1 0-2 .4-2.8 1.3-.7.8-1.1 1.9-1.1 3.2v8h-2.2v-14h2.2v2.3h.1C36.3 6.9 37.8 6 39.8 6c1.5 0 2.7.5 3.5 1.5.8 1 1.2 2.4 1.2 4.3v8.6zm-14-14l-6.4 16.2c-1.1 2.9-2.8 4.3-4.8 4.3-.6 0-1.1-.1-1.5-.2v-2c.5.2.9.2 1.3.2 1.1 0 2-.7 2.5-2l1.1-2.7-5.4-13.8h2.5l3.8 10.8c0 .1.1.5.3 1.1h.1c0-.2.1-.6.3-1l4-10.8h2.2v-.1zM2.3 2.9v15.4h2.9c2.6 0 4.6-.7 6-2.1 1.4-1.4 2.1-3.3 2.1-5.9 0-5-2.7-7.5-8-7.5h-3v.1zM0 20.4V.8h5.4c6.9 0 10.4 3.2 10.4 9.6 0 3-1 5.5-2.9 7.3-1.9 1.8-4.5 2.7-7.7 2.7H0z" fill-rule="evenodd"/></symbol><symbol id="logo" viewBox="0 0 150 54"><style>.st0{fill:#2e2e2e}.st1{fill:#1362e2}.st2{fill:#fff}</style><g id="Illustrations"><g id="DWKIT_LOGO_F_Vers"><g id="Group"><path id="Shape" d="M67.2 21.5c1.8 0 3.4.5 4.5 1.6 1.2 1.1 1.7 2.5 1.7 4.3s-.6 3.2-1.7 4.3c-1.2 1.1-2.7 1.7-4.5 1.7h-3.8v-12h3.8zm-1.4 2.2v7.6h1.3c1.2 0 2.1-.3 2.8-1 .7-.7 1.1-1.6 1.1-2.8 0-2.3-1.5-3.7-3.8-3.7h-1.4z" class="st0"/><path id="Shape_1_" d="M95.8 21.7h2.7l-4.9 11.8h-.8l-3.3-7.2-3.3 7.2h-.8l-4.9-11.8h2.7l2.7 6.8 3.1-7h.8l3.1 7z" class="st0"/><path id="Shape_2_" d="M107.8 33.5h-2.3v-12h2.3V27l4.4-5.5h2.8l-4.5 5.6 5 6.4h-2.8l-5-6.3v6.3z" class="st0"/><path id="Shape_3_" d="M125.5 21.5v12h-2v-12z" class="st0"/><path id="Shape_4_" d="M142.5 21.5v2.2h-3.8v9.8h-2.4v-9.8h-3.8v-2.2z" class="st0"/></g><g id="DWKIT_LOGO"><path id="Rectangle-2" d="M.5 15.1L24 1.5v50.6L.5 38.5V15.1zM24 1.5l23.4 13.6v23.5L24 52.1V1.5z" class="st1"/><path id="Path-2" d="M12.9 20.4L24 14l11 6.4-11 6.4z" class="st2"/><path id="Path-3" d="M12.1 21.1l11.4 6.6v11.5l-11.4-6.5z" class="st2"/><path id="Path-3-Copy" d="M35.8 21.1l-11.3 6.6v11.5l11.3-6.5z" class="st2"/></g></g></g></symbol><symbol id="sharepoint"><path fill="#959595" d="M130.1 20.6c-.5.3-1.2.4-2.1.4-2.5 0-3.7-1.4-3.7-4.1V8.6h-2.4V6.7h2.4V3.3l2.2-.7v4.1h3.5v1.9h-3.5v7.9c0 .9.2 1.6.5 2 .3.4.8.6 1.6.6.6 0 1.1-.2 1.5-.5v2zm-10.7.1h-2.2v-8c0-3-1.1-4.5-3.3-4.5-1.1 0-2 .4-2.8 1.3-.8.9-1.1 1.9-1.1 3.2v8h-2.2v-14h2.2V9h.1c1.1-1.8 2.6-2.7 4.6-2.7 1.5 0 2.7.5 3.5 1.5.8 1 1.2 2.4 1.2 4.3v8.6zm-18.3 0h2.2v-14h-2.2v14zm1.1-17.6c-.4 0-.7-.1-1-.4-.3-.3-.4-.6-.4-1s.1-.8.4-1c.3-.3.6-.4 1-.4s.8.1 1 .4c.2.3.4.6.4 1s-.1.7-.4 1c-.3.3-.6.4-1 .4zM90.6 8.3c-1.4 0-2.6.5-3.4 1.5-.8 1-1.3 2.3-1.3 4.1 0 1.7.4 3 1.3 3.9.9.9 2 1.4 3.4 1.4s2.6-.5 3.3-1.4c.7-.9 1.2-2.3 1.2-4 0-1.8-.4-3.1-1.2-4-.8-.9-1.8-1.5-3.3-1.5zM90.5 21c-2.1 0-3.7-.7-5-2-1.3-1.3-1.9-3-1.9-5.2 0-2.4.6-4.2 1.9-5.5 1.3-1.3 3-2 5.2-2 2.1 0 3.7.6 4.9 1.9 1.2 1.3 1.8 3.1 1.8 5.3 0 2.2-.6 4-1.9 5.4-1.3 1.4-2.9 2.1-5 2.1zM72.6 3.2v8H75c1.6 0 2.8-.4 3.6-1.1.8-.7 1.3-1.7 1.3-3.1 0-2.6-1.5-3.9-4.6-3.9h-2.7v.1zm0 10.1v7.4h-2.3V1.1h5.4c2.1 0 3.7.5 4.9 1.5 1.2 1 1.7 2.5 1.7 4.3 0 1.8-.6 3.4-1.9 4.6-1.3 1.2-3 1.8-5.2 1.8h-2.6zm-8.3-.9c0-1.3-.3-2.3-.9-3-.6-.7-1.5-1.1-2.6-1.1s-2 .4-2.7 1.1c-.7.7-1.2 1.7-1.4 3h7.6zm2.3 1.9h-9.9c0 1.6.5 2.8 1.3 3.6.8.8 1.9 1.3 3.3 1.3 1.6 0 3-.5 4.3-1.6v2.1c-1.2.9-2.9 1.3-4.9 1.3-2 0-3.5-.6-4.7-1.9-1.1-1.3-1.7-3.1-1.7-5.4 0-2.2.6-4 1.9-5.3C57.4 7 59 6.3 60.8 6.3c1.8 0 3.3.7 4.3 1.8 1 1.2 1.5 2.8 1.5 4.9v1.3zM52.9 9c-.4-.3-1-.5-1.7-.5-1 0-1.8.5-2.4 1.4-.6.9-1 2.1-1 3.7v7.1h-2.2v-14h2.2v2.9h.1c.3-1 .8-1.8 1.5-2.3.7-.5 1.4-.8 2.2-.8.6 0 1 .1 1.3.2V9zm-13.8 4.6l-3.4.5c-1 .1-1.8.4-2.4.8-.5.4-.8 1-.8 2 0 .7.2 1.2.7 1.7.5.4 1.1.6 1.9.6 1.1 0 2-.4 2.8-1.2.8-.8 1.1-1.8 1.1-3v-1.4h.1zm2.3 7.1h-2.3v-2.2c-1 1.7-2.4 2.5-4.3 2.5-1.4 0-2.5-.4-3.3-1.1-.8-.7-1.2-1.7-1.2-2.9 0-2.6 1.5-4.1 4.6-4.6l4.2-.6c0-2.4-1-3.6-2.9-3.6-1.7 0-3.2.6-4.6 1.7V7.7c1.4-.9 3-1.3 4.8-1.3 3.3 0 4.9 1.7 4.9 5.2v9.1h.1zm-14.3 0h-2.2v-8.1c0-2.9-1.1-4.4-3.3-4.4-1.1 0-2 .4-2.8 1.3-.7.8-1.1 1.9-1.1 3.2v8h-2.2V0h2.2v9.1h.1c1.1-1.8 2.6-2.7 4.6-2.7 3.2 0 4.7 1.9 4.7 5.7v8.6zM0 19.9v-2.7c.3.3.7.5 1.1.7.4.2.9.4 1.4.6.5.2 1 .3 1.4.3.5.1.9.1 1.3.1 1.4 0 2.5-.3 3.2-.8.7-.5 1-1.3 1-2.3 0-.5-.1-1-.3-1.4-.2-.4-.6-.8-1-1.1-.4-.3-.9-.6-1.5-.9l-1.8-.9c-.7-.3-1.3-.7-1.9-1.1-.6-.4-1.1-.7-1.5-1.2-.4-.5-.8-.9-1-1.5C.2 7.4 0 6.7 0 6c0-.9.2-1.7.6-2.3.4-.7.9-1.2 1.5-1.6.6-.4 1.4-.7 2.2-1C5.1.9 5.9.8 6.8.8c1.9 0 3.3.2 4.2.7v2.6c-1.2-.8-2.6-1.2-4.5-1.2-.4-.1-.9 0-1.4.1-.5.1-.9.3-1.3.5s-.7.5-1 .9c-.3.4-.4.9-.4 1.4 0 .5.1.9.3 1.3.2.4.5.7.8 1 .4.3.8.6 1.4.9.5.3 1.1.6 1.8.9.7.3 1.4.7 2 1.1.6.4 1.2.8 1.7 1.3s.8 1 1.1 1.5c.3.6.4 1.2.4 1.9 0 1-.2 1.8-.6 2.5-.4.7-.9 1.2-1.5 1.6-.6.4-1.4.8-2.2.9-.8.2-1.7.3-2.7.3-.3 0-.7 0-1.1-.1-.5 0-.9-.1-1.4-.2-.5-.1-.9-.2-1.3-.4s-.8-.2-1.1-.4z" fill-rule="evenodd"/></symbol></svg>